<?xml version="1.0" encoding="UTF-8"?>
<!DOCTYPE svg PUBLIC "-//W3C//DTD SVG 1.1//EN" "http://www.w3.org/Graphics/SVG/1.1/DTD/svg11.dtd">
<svg xmlns="http://www.w3.org/2000/svg" version="1.1" width="360px" height="360px" style="shape-rendering:geometricPrecision; text-rendering:geometricPrecision; image-rendering:optimizeQuality; fill-rule:evenodd; clip-rule:evenodd" xmlns:xlink="http://www.w3.org/1999/xlink">
<g><path style="opacity:1" fill="#073e53" d="M 95.5,36.5 C 151.837,36.1667 208.171,36.5 264.5,37.5C 292.491,84.6531 319.825,132.153 346.5,180C 319.825,227.847 292.491,275.347 264.5,322.5C 208.167,323.833 151.833,323.833 95.5,322.5C 67.5086,275.347 40.1753,227.847 13.5,180C 40.4512,131.929 67.7846,84.0954 95.5,36.5 Z"/></g>
<g><path style="opacity:1" fill="#fdfdfe" d="M 182.5,93.5 C 229.233,95.7354 255.067,120.069 260,166.5C 263.452,194.296 256.452,218.963 239,240.5C 222.722,256.219 203.222,264.719 180.5,266C 160.169,266.5 139.836,266.667 119.5,266.5C 119.5,208.833 119.5,151.167 119.5,93.5C 140.5,93.5 161.5,93.5 182.5,93.5 Z"/></g>
<g><path style="opacity:1" fill="#6d8e9a" d="M 182.5,93.5 C 161.5,93.5 140.5,93.5 119.5,93.5C 119.5,151.167 119.5,208.833 119.5,266.5C 118.501,208.669 118.168,150.669 118.5,92.5C 140.007,92.1694 161.34,92.5027 182.5,93.5 Z"/></g>
<g><path style="opacity:1" fill="#063e53" d="M 154.5,126.5 C 212.025,121.528 234.192,147.195 221,203.5C 212.159,222.85 196.993,232.516 175.5,232.5C 168.5,232.5 161.5,232.5 154.5,232.5C 154.5,197.167 154.5,161.833 154.5,126.5 Z"/></g>
<g><path style="opacity:1" fill="#73929d" d="M 154.5,126.5 C 154.5,161.833 154.5,197.167 154.5,232.5C 161.5,232.5 168.5,232.5 175.5,232.5C 168.352,233.492 161.019,233.825 153.5,233.5C 153.168,197.663 153.502,161.996 154.5,126.5 Z"/></g>
</svg>
